<mxfile host="app.diagrams.net" modified="2023-01-10T22:51:53.499Z" agent="5.0 (Windows NT 10.0; Win64; x64) AppleWebKit/537.36 (KHTML, like Gecko) Chrome/108.0.0.0 Safari/537.36 OPR/94.0.0.0" etag="4be_B4A91sQmurt3_Rfu" version="20.8.3" type="github">
  <diagram id="yPxyJZ8AM_hMuL3Unpa9" name="simple gitflow">
    <mxGraphModel dx="2226" dy="861" grid="1" gridSize="10" guides="1" tooltips="1" connect="1" arrows="1" fold="1" page="1" pageScale="1" pageWidth="560" pageHeight="1600" math="0" shadow="0">
      <root>
        <mxCell id="0" />
        <mxCell id="1" parent="0" />
        <mxCell id="wS9XHcUrJG6oOYsVFkSh-28" value="" style="whiteSpace=wrap;html=1;fillColor=none;strokeColor=#666666;fontColor=#333333;" vertex="1" parent="1">
          <mxGeometry x="20" y="900" width="1080" height="280" as="geometry" />
        </mxCell>
        <mxCell id="wS9XHcUrJG6oOYsVFkSh-3" value="" style="whiteSpace=wrap;html=1;fillColor=none;strokeColor=#666666;fontColor=#333333;" vertex="1" parent="1">
          <mxGeometry x="20" y="585" width="1080" height="280" as="geometry" />
        </mxCell>
        <mxCell id="wS9XHcUrJG6oOYsVFkSh-1" value="" style="whiteSpace=wrap;html=1;fillColor=none;strokeColor=#666666;fontColor=#333333;" vertex="1" parent="1">
          <mxGeometry x="24.27" y="75" width="1080" height="470" as="geometry" />
        </mxCell>
        <UserObject label="Proposed branching strategy" id="9hBKPDzoitwpIBdzFDQ7-6">
          <mxCell style="text;whiteSpace=wrap;html=1;fontStyle=1;fontSize=17;" parent="1" vertex="1">
            <mxGeometry x="28.72" y="30" width="250" height="30" as="geometry" />
          </mxCell>
        </UserObject>
        <mxCell id="9hBKPDzoitwpIBdzFDQ7-23" value="" style="edgeStyle=orthogonalEdgeStyle;rounded=0;html=1;jettySize=auto;orthogonalLoop=1;plain-blue;endArrow=none;endFill=0;strokeWidth=4;strokeColor=#000000;" parent="1" source="9hBKPDzoitwpIBdzFDQ7-25" target="9hBKPDzoitwpIBdzFDQ7-26" edge="1">
          <mxGeometry x="314.5" y="200" as="geometry" />
        </mxCell>
        <mxCell id="9hBKPDzoitwpIBdzFDQ7-24" style="edgeStyle=orthogonalEdgeStyle;curved=1;rounded=0;html=1;exitX=1;exitY=0.5;exitPerimeter=0;entryX=0;entryY=0.5;entryPerimeter=0;endArrow=none;endFill=0;jettySize=auto;orthogonalLoop=1;strokeWidth=4;fontSize=15;exitDx=0;exitDy=0;" parent="1" source="zWrNHK0OxFY0BgSE-Mza-2" target="9hBKPDzoitwpIBdzFDQ7-30" edge="1">
          <mxGeometry relative="1" as="geometry" />
        </mxCell>
        <mxCell id="9hBKPDzoitwpIBdzFDQ7-25" value="" style="verticalLabelPosition=bottom;verticalAlign=top;html=1;strokeWidth=4;shape=mxgraph.flowchart.on-page_reference;fillColor=#dae8fc;strokeColor=#6c8ebf;" parent="1" vertex="1">
          <mxGeometry x="284.5" y="185" width="30" height="30" as="geometry" />
        </mxCell>
        <mxCell id="9hBKPDzoitwpIBdzFDQ7-41" value="" style="edgeStyle=orthogonalEdgeStyle;curved=1;rounded=0;orthogonalLoop=1;jettySize=auto;html=1;endArrow=none;endFill=0;strokeWidth=4;fontFamily=Courier New;fontSize=16;" parent="1" source="9hBKPDzoitwpIBdzFDQ7-26" edge="1">
          <mxGeometry relative="1" as="geometry">
            <mxPoint x="690" y="200.04761904761904" as="targetPoint" />
          </mxGeometry>
        </mxCell>
        <mxCell id="9hBKPDzoitwpIBdzFDQ7-26" value="" style="verticalLabelPosition=bottom;verticalAlign=top;html=1;strokeWidth=4;shape=mxgraph.flowchart.on-page_reference;strokeColor=#6c8ebf;fillColor=#dae8fc;" parent="1" vertex="1">
          <mxGeometry x="620" y="185" width="30" height="30" as="geometry" />
        </mxCell>
        <mxCell id="9hBKPDzoitwpIBdzFDQ7-43" value="" style="edgeStyle=orthogonalEdgeStyle;curved=1;rounded=0;orthogonalLoop=1;jettySize=auto;html=1;endArrow=none;endFill=0;strokeWidth=4;fontFamily=Courier New;fontSize=16;exitX=1;exitY=0.5;exitDx=0;exitDy=0;exitPerimeter=0;entryX=0;entryY=0.5;entryDx=0;entryDy=0;entryPerimeter=0;" parent="1" source="9hBKPDzoitwpIBdzFDQ7-26" target="9hBKPDzoitwpIBdzFDQ7-50" edge="1">
          <mxGeometry relative="1" as="geometry">
            <mxPoint x="850" y="125.04761904761904" as="sourcePoint" />
            <mxPoint x="700" y="280" as="targetPoint" />
          </mxGeometry>
        </mxCell>
        <mxCell id="9hBKPDzoitwpIBdzFDQ7-55" value="" style="verticalLabelPosition=bottom;verticalAlign=top;html=1;strokeWidth=4;shape=mxgraph.flowchart.on-page_reference;strokeColor=#6c8ebf;fillColor=#dae8fc;" parent="1" vertex="1">
          <mxGeometry x="1000" y="185" width="30" height="30" as="geometry" />
        </mxCell>
        <mxCell id="9hBKPDzoitwpIBdzFDQ7-27" value="" style="edgeStyle=orthogonalEdgeStyle;rounded=0;html=1;jettySize=auto;orthogonalLoop=1;strokeWidth=4;endArrow=none;endFill=0;" parent="1" target="9hBKPDzoitwpIBdzFDQ7-25" edge="1">
          <mxGeometry x="214.5" y="200" as="geometry">
            <mxPoint x="170" y="200" as="sourcePoint" />
          </mxGeometry>
        </mxCell>
        <mxCell id="9hBKPDzoitwpIBdzFDQ7-28" value="master" style="text;html=1;strokeColor=none;fillColor=none;align=center;verticalAlign=middle;whiteSpace=wrap;overflow=hidden;fontSize=14;fontStyle=1;fontFamily=Courier New;" parent="1" vertex="1">
          <mxGeometry x="90" y="190" width="60" height="20" as="geometry" />
        </mxCell>
        <mxCell id="9hBKPDzoitwpIBdzFDQ7-30" value="" style="verticalLabelPosition=bottom;verticalAlign=top;html=1;strokeWidth=4;shape=mxgraph.flowchart.on-page_reference;strokeColor=#9673a6;fillColor=#e1d5e7;" parent="1" vertex="1">
          <mxGeometry x="439.5" y="265" width="30" height="30" as="geometry" />
        </mxCell>
        <mxCell id="9hBKPDzoitwpIBdzFDQ7-31" style="edgeStyle=orthogonalEdgeStyle;curved=1;rounded=0;html=1;exitX=1;exitY=0.5;exitPerimeter=0;entryX=0;entryY=0.5;entryPerimeter=0;endArrow=none;endFill=0;jettySize=auto;orthogonalLoop=1;strokeWidth=4;fontSize=15;exitDx=0;exitDy=0;" parent="1" source="9hBKPDzoitwpIBdzFDQ7-30" target="9hBKPDzoitwpIBdzFDQ7-34" edge="1">
          <mxGeometry relative="1" as="geometry">
            <mxPoint x="459.5" y="280" as="sourcePoint" />
          </mxGeometry>
        </mxCell>
        <mxCell id="9hBKPDzoitwpIBdzFDQ7-33" style="edgeStyle=orthogonalEdgeStyle;curved=1;rounded=0;html=1;exitX=1;exitY=0.5;exitPerimeter=0;entryX=0;entryY=0.5;entryPerimeter=0;endArrow=none;endFill=0;jettySize=auto;orthogonalLoop=1;strokeWidth=4;fontSize=15;" parent="1" source="9hBKPDzoitwpIBdzFDQ7-34" target="9hBKPDzoitwpIBdzFDQ7-26" edge="1">
          <mxGeometry relative="1" as="geometry" />
        </mxCell>
        <mxCell id="9hBKPDzoitwpIBdzFDQ7-34" value="" style="verticalLabelPosition=bottom;verticalAlign=top;html=1;strokeWidth=4;shape=mxgraph.flowchart.on-page_reference;strokeColor=#9673a6;fillColor=#e1d5e7;" parent="1" vertex="1">
          <mxGeometry x="520" y="265" width="30" height="30" as="geometry" />
        </mxCell>
        <mxCell id="9hBKPDzoitwpIBdzFDQ7-35" value="&lt;span style=&quot;font-weight: normal;&quot;&gt;branch:&amp;nbsp;&lt;/span&gt;release 6.14.0" style="text;html=1;strokeColor=none;fillColor=none;align=left;verticalAlign=middle;whiteSpace=wrap;overflow=hidden;fontSize=14;fontStyle=1;fontFamily=Courier New;" parent="1" vertex="1">
          <mxGeometry x="35.5" y="271" width="194.5" height="20" as="geometry" />
        </mxCell>
        <mxCell id="9hBKPDzoitwpIBdzFDQ7-39" value="tag: &lt;b&gt;release 6.13.0&lt;/b&gt;" style="text;html=1;strokeColor=none;fillColor=none;align=center;verticalAlign=middle;whiteSpace=wrap;overflow=hidden;fontSize=14;fontFamily=Courier New;" parent="1" vertex="1">
          <mxGeometry x="235.63" y="680" width="166.62" height="20" as="geometry" />
        </mxCell>
        <mxCell id="9hBKPDzoitwpIBdzFDQ7-54" value="" style="edgeStyle=orthogonalEdgeStyle;curved=1;rounded=0;orthogonalLoop=1;jettySize=auto;html=1;endArrow=none;endFill=0;strokeWidth=4;fontFamily=Courier New;fontSize=16;entryX=0;entryY=0.5;entryDx=0;entryDy=0;entryPerimeter=0;exitX=1;exitY=0.5;exitDx=0;exitDy=0;exitPerimeter=0;" parent="1" source="9hBKPDzoitwpIBdzFDQ7-26" target="9hBKPDzoitwpIBdzFDQ7-55" edge="1">
          <mxGeometry relative="1" as="geometry">
            <mxPoint x="912.25" y="280" as="targetPoint" />
          </mxGeometry>
        </mxCell>
        <mxCell id="9hBKPDzoitwpIBdzFDQ7-50" value="" style="verticalLabelPosition=bottom;verticalAlign=top;html=1;strokeWidth=4;shape=mxgraph.flowchart.on-page_reference;strokeColor=#82b366;fillColor=#d5e8d4;" parent="1" vertex="1">
          <mxGeometry x="720" y="265" width="30" height="30" as="geometry" />
        </mxCell>
        <mxCell id="zWrNHK0OxFY0BgSE-Mza-2" value="" style="verticalLabelPosition=bottom;verticalAlign=top;html=1;strokeWidth=4;shape=mxgraph.flowchart.on-page_reference;strokeColor=#82b366;fillColor=#d5e8d4;" parent="1" vertex="1">
          <mxGeometry x="356.13" y="265" width="30" height="30" as="geometry" />
        </mxCell>
        <mxCell id="zWrNHK0OxFY0BgSE-Mza-3" value="" style="verticalLabelPosition=bottom;verticalAlign=top;html=1;strokeWidth=4;shape=mxgraph.flowchart.on-page_reference;strokeColor=#9673a6;fillColor=#e1d5e7;" parent="1" vertex="1">
          <mxGeometry x="375.5" y="1050" width="30" height="30" as="geometry" />
        </mxCell>
        <mxCell id="zWrNHK0OxFY0BgSE-Mza-4" value="tag:&amp;nbsp;&lt;b&gt;release 6.14.0&lt;/b&gt;" style="text;html=1;strokeColor=none;fillColor=none;align=center;verticalAlign=middle;whiteSpace=wrap;overflow=hidden;fontSize=14;fontFamily=Courier New;" parent="1" vertex="1">
          <mxGeometry x="545.74" y="150" width="178.53" height="20" as="geometry" />
        </mxCell>
        <mxCell id="zWrNHK0OxFY0BgSE-Mza-6" value="&lt;span style=&quot;text-align: center; font-size: 11px;&quot;&gt;Each tag represents a production release.&lt;/span&gt;" style="text;html=1;strokeColor=none;fillColor=none;align=left;verticalAlign=middle;whiteSpace=wrap;overflow=hidden;fontSize=11;fontStyle=0;fontColor=#000000;" parent="1" vertex="1">
          <mxGeometry x="41" y="141" width="120" height="38" as="geometry" />
        </mxCell>
        <mxCell id="zWrNHK0OxFY0BgSE-Mza-8" value="" style="edgeStyle=orthogonalEdgeStyle;rounded=0;orthogonalLoop=1;jettySize=auto;html=1;fontSize=12;fontColor=#000000;" parent="1" edge="1">
          <mxGeometry relative="1" as="geometry">
            <mxPoint x="213" y="161" as="targetPoint" />
            <Array as="points">
              <mxPoint x="182" y="161" />
              <mxPoint x="182" y="161" />
            </Array>
            <mxPoint x="172" y="161" as="sourcePoint" />
          </mxGeometry>
        </mxCell>
        <mxCell id="zWrNHK0OxFY0BgSE-Mza-9" value="stage" style="text;html=1;strokeColor=none;fillColor=none;align=center;verticalAlign=middle;whiteSpace=wrap;overflow=hidden;fontSize=14;fontStyle=1;fontFamily=Courier New;" parent="1" vertex="1">
          <mxGeometry x="100" y="980" width="60" height="20" as="geometry" />
        </mxCell>
        <mxCell id="zWrNHK0OxFY0BgSE-Mza-10" value="&lt;span style=&quot;font-weight: 400;&quot;&gt;branch:&amp;nbsp;&lt;/span&gt;feature #2" style="text;html=1;strokeColor=none;fillColor=none;align=left;verticalAlign=middle;whiteSpace=wrap;overflow=hidden;fontSize=14;fontStyle=1;fontFamily=Courier New;" parent="1" vertex="1">
          <mxGeometry x="337.89" y="435" width="158.72" height="20" as="geometry" />
        </mxCell>
        <mxCell id="zWrNHK0OxFY0BgSE-Mza-16" style="edgeStyle=orthogonalEdgeStyle;curved=1;rounded=0;html=1;exitX=1;exitY=0.5;exitPerimeter=0;entryX=0;entryY=0.5;entryPerimeter=0;endArrow=none;endFill=0;jettySize=auto;orthogonalLoop=1;strokeWidth=4;fontSize=15;exitDx=0;exitDy=0;entryDx=0;entryDy=0;" parent="1" source="9hBKPDzoitwpIBdzFDQ7-25" target="zWrNHK0OxFY0BgSE-Mza-2" edge="1">
          <mxGeometry relative="1" as="geometry">
            <mxPoint x="215" y="300" as="sourcePoint" />
            <mxPoint x="400.5" y="420" as="targetPoint" />
          </mxGeometry>
        </mxCell>
        <mxCell id="zWrNHK0OxFY0BgSE-Mza-18" value="" style="edgeStyle=orthogonalEdgeStyle;rounded=0;html=1;jettySize=auto;orthogonalLoop=1;strokeWidth=4;endArrow=none;endFill=0;" parent="1" edge="1">
          <mxGeometry x="222.25" y="989.5" as="geometry">
            <mxPoint x="177.75" y="989.5" as="sourcePoint" />
            <mxPoint x="292.25" y="989.5" as="targetPoint" />
          </mxGeometry>
        </mxCell>
        <mxCell id="zWrNHK0OxFY0BgSE-Mza-19" value="" style="verticalLabelPosition=bottom;verticalAlign=top;html=1;strokeWidth=4;shape=mxgraph.flowchart.on-page_reference;fillColor=#dae8fc;strokeColor=#6c8ebf;" parent="1" vertex="1">
          <mxGeometry x="294.5" y="975" width="30" height="30" as="geometry" />
        </mxCell>
        <mxCell id="zWrNHK0OxFY0BgSE-Mza-20" value="tag: &lt;b&gt;release 6.15.0&lt;/b&gt;" style="text;html=1;strokeColor=none;fillColor=none;align=center;verticalAlign=middle;whiteSpace=wrap;overflow=hidden;fontSize=14;fontFamily=Courier New;" parent="1" vertex="1">
          <mxGeometry x="223.69000000000005" y="940" width="171.62" height="20" as="geometry" />
        </mxCell>
        <mxCell id="zWrNHK0OxFY0BgSE-Mza-22" value="" style="verticalLabelPosition=bottom;verticalAlign=top;html=1;strokeWidth=4;shape=mxgraph.flowchart.on-page_reference;strokeColor=#9673a6;fillColor=#e1d5e7;" parent="1" vertex="1">
          <mxGeometry x="372.25" y="320" width="30" height="30" as="geometry" />
        </mxCell>
        <mxCell id="zWrNHK0OxFY0BgSE-Mza-25" style="edgeStyle=orthogonalEdgeStyle;curved=1;rounded=0;html=1;exitX=0.5;exitY=1;exitPerimeter=0;entryX=0;entryY=0.5;entryPerimeter=0;endArrow=none;endFill=0;jettySize=auto;orthogonalLoop=1;strokeWidth=4;fontSize=15;exitDx=0;exitDy=0;entryDx=0;entryDy=0;" parent="1" source="9hBKPDzoitwpIBdzFDQ7-25" target="zWrNHK0OxFY0BgSE-Mza-22" edge="1">
          <mxGeometry relative="1" as="geometry">
            <mxPoint x="285.88" y="290" as="sourcePoint" />
            <mxPoint x="327.5100000000001" y="370" as="targetPoint" />
          </mxGeometry>
        </mxCell>
        <mxCell id="zWrNHK0OxFY0BgSE-Mza-26" value="" style="verticalLabelPosition=bottom;verticalAlign=top;html=1;strokeWidth=4;shape=mxgraph.flowchart.on-page_reference;strokeColor=#9673a6;fillColor=#e1d5e7;" parent="1" vertex="1">
          <mxGeometry x="402.25" y="394" width="30" height="30" as="geometry" />
        </mxCell>
        <mxCell id="zWrNHK0OxFY0BgSE-Mza-27" style="edgeStyle=orthogonalEdgeStyle;curved=1;rounded=0;html=1;exitX=0.5;exitY=1;exitPerimeter=0;entryX=0;entryY=0.5;entryPerimeter=0;endArrow=none;endFill=0;jettySize=auto;orthogonalLoop=1;strokeWidth=4;fontSize=15;exitDx=0;exitDy=0;entryDx=0;entryDy=0;" parent="1" source="9hBKPDzoitwpIBdzFDQ7-25" target="zWrNHK0OxFY0BgSE-Mza-26" edge="1">
          <mxGeometry relative="1" as="geometry">
            <mxPoint x="284.5" y="363.5" as="sourcePoint" />
            <mxPoint x="334.5" y="363.5" as="targetPoint" />
          </mxGeometry>
        </mxCell>
        <mxCell id="zWrNHK0OxFY0BgSE-Mza-28" style="edgeStyle=orthogonalEdgeStyle;curved=1;rounded=0;html=1;exitX=1;exitY=0.5;exitPerimeter=0;entryX=0.5;entryY=1;entryPerimeter=0;endArrow=none;endFill=0;jettySize=auto;orthogonalLoop=1;strokeWidth=4;fontSize=15;exitDx=0;exitDy=0;entryDx=0;entryDy=0;" parent="1" source="zWrNHK0OxFY0BgSE-Mza-22" target="9hBKPDzoitwpIBdzFDQ7-30" edge="1">
          <mxGeometry relative="1" as="geometry">
            <mxPoint x="420" y="340" as="sourcePoint" />
            <mxPoint x="470" y="340" as="targetPoint" />
          </mxGeometry>
        </mxCell>
        <mxCell id="zWrNHK0OxFY0BgSE-Mza-29" style="edgeStyle=orthogonalEdgeStyle;curved=1;rounded=0;html=1;exitX=1;exitY=0.5;exitPerimeter=0;entryX=0.5;entryY=1;entryPerimeter=0;endArrow=none;endFill=0;jettySize=auto;orthogonalLoop=1;strokeWidth=4;fontSize=15;exitDx=0;exitDy=0;entryDx=0;entryDy=0;" parent="1" source="zWrNHK0OxFY0BgSE-Mza-26" target="9hBKPDzoitwpIBdzFDQ7-34" edge="1">
          <mxGeometry relative="1" as="geometry">
            <mxPoint x="450" y="404.5" as="sourcePoint" />
            <mxPoint x="500.5" y="404.5" as="targetPoint" />
          </mxGeometry>
        </mxCell>
        <mxCell id="zWrNHK0OxFY0BgSE-Mza-33" value="" style="verticalLabelPosition=bottom;verticalAlign=top;html=1;strokeWidth=4;shape=mxgraph.flowchart.on-page_reference;strokeColor=#9673a6;fillColor=#e1d5e7;" parent="1" vertex="1">
          <mxGeometry x="727.06" y="320" width="30" height="30" as="geometry" />
        </mxCell>
        <mxCell id="zWrNHK0OxFY0BgSE-Mza-35" value="PR commit" style="text;html=1;strokeColor=none;fillColor=none;align=center;verticalAlign=middle;whiteSpace=wrap;overflow=hidden;" parent="1" vertex="1">
          <mxGeometry x="494.5" y="236" width="80" height="30" as="geometry" />
        </mxCell>
        <mxCell id="zWrNHK0OxFY0BgSE-Mza-36" value="PR commit" style="text;html=1;strokeColor=none;fillColor=none;align=center;verticalAlign=middle;whiteSpace=wrap;overflow=hidden;" parent="1" vertex="1">
          <mxGeometry x="414.5" y="236" width="80" height="30" as="geometry" />
        </mxCell>
        <mxCell id="zWrNHK0OxFY0BgSE-Mza-41" style="edgeStyle=orthogonalEdgeStyle;curved=1;rounded=0;html=1;exitX=0;exitY=0.5;exitPerimeter=0;entryX=0.5;entryY=1;entryPerimeter=0;endArrow=none;endFill=0;jettySize=auto;orthogonalLoop=1;strokeWidth=4;fontSize=15;exitDx=0;exitDy=0;entryDx=0;entryDy=0;" parent="1" source="zWrNHK0OxFY0BgSE-Mza-33" target="9hBKPDzoitwpIBdzFDQ7-26" edge="1">
          <mxGeometry relative="1" as="geometry">
            <mxPoint x="650" y="470.0000000000001" as="sourcePoint" />
            <mxPoint x="772" y="360" as="targetPoint" />
          </mxGeometry>
        </mxCell>
        <mxCell id="zWrNHK0OxFY0BgSE-Mza-43" value="The main branch&lt;br&gt;" style="text;html=1;strokeColor=none;fillColor=none;align=left;verticalAlign=middle;whiteSpace=wrap;overflow=hidden;fontSize=14;fontStyle=0;fontColor=#009900;" parent="1" vertex="1">
          <mxGeometry x="90" y="215" width="111.75" height="20" as="geometry" />
        </mxCell>
        <mxCell id="zWrNHK0OxFY0BgSE-Mza-44" value="The release branch" style="text;html=1;strokeColor=none;fillColor=none;align=left;verticalAlign=middle;whiteSpace=wrap;overflow=hidden;fontSize=14;fontStyle=0;fontColor=#009900;" parent="1" vertex="1">
          <mxGeometry x="120" y="300" width="123.25" height="20" as="geometry" />
        </mxCell>
        <mxCell id="zWrNHK0OxFY0BgSE-Mza-45" value="" style="verticalLabelPosition=bottom;verticalAlign=top;html=1;strokeWidth=4;shape=mxgraph.flowchart.on-page_reference;strokeColor=#9673a6;fillColor=#e1d5e7;" parent="1" vertex="1">
          <mxGeometry x="740" y="394" width="30" height="30" as="geometry" />
        </mxCell>
        <mxCell id="zWrNHK0OxFY0BgSE-Mza-46" value="" style="verticalLabelPosition=bottom;verticalAlign=top;html=1;strokeWidth=4;shape=mxgraph.flowchart.on-page_reference;strokeColor=#9673a6;fillColor=#e1d5e7;" parent="1" vertex="1">
          <mxGeometry x="780" y="470" width="30" height="30" as="geometry" />
        </mxCell>
        <mxCell id="zWrNHK0OxFY0BgSE-Mza-48" value="&lt;span style=&quot;font-weight: 400;&quot;&gt;branch:&amp;nbsp;&lt;/span&gt;feature #5" style="text;html=1;strokeColor=none;fillColor=none;align=left;verticalAlign=middle;whiteSpace=wrap;overflow=hidden;fontSize=14;fontStyle=1;fontFamily=Courier New;" parent="1" vertex="1">
          <mxGeometry x="708.72" y="507" width="172.56" height="20" as="geometry" />
        </mxCell>
        <mxCell id="zWrNHK0OxFY0BgSE-Mza-49" style="edgeStyle=orthogonalEdgeStyle;curved=1;rounded=0;html=1;exitX=0;exitY=0.5;exitPerimeter=0;entryX=0.5;entryY=1;entryPerimeter=0;endArrow=none;endFill=0;jettySize=auto;orthogonalLoop=1;strokeWidth=4;fontSize=15;exitDx=0;exitDy=0;entryDx=0;entryDy=0;" parent="1" source="zWrNHK0OxFY0BgSE-Mza-45" target="9hBKPDzoitwpIBdzFDQ7-26" edge="1">
          <mxGeometry relative="1" as="geometry">
            <mxPoint x="712.06" y="415" as="sourcePoint" />
            <mxPoint x="620" y="295" as="targetPoint" />
          </mxGeometry>
        </mxCell>
        <mxCell id="zWrNHK0OxFY0BgSE-Mza-50" style="edgeStyle=orthogonalEdgeStyle;curved=1;rounded=0;html=1;exitX=0;exitY=0.5;exitPerimeter=0;entryX=0.5;entryY=1;entryPerimeter=0;endArrow=none;endFill=0;jettySize=auto;orthogonalLoop=1;strokeWidth=4;fontSize=15;exitDx=0;exitDy=0;entryDx=0;entryDy=0;" parent="1" source="zWrNHK0OxFY0BgSE-Mza-46" target="9hBKPDzoitwpIBdzFDQ7-26" edge="1">
          <mxGeometry relative="1" as="geometry">
            <mxPoint x="672.06" y="490" as="sourcePoint" />
            <mxPoint x="580" y="370" as="targetPoint" />
          </mxGeometry>
        </mxCell>
        <mxCell id="zWrNHK0OxFY0BgSE-Mza-51" value="" style="verticalLabelPosition=bottom;verticalAlign=top;html=1;strokeWidth=4;shape=mxgraph.flowchart.on-page_reference;strokeColor=#9673a6;fillColor=#e1d5e7;" parent="1" vertex="1">
          <mxGeometry x="930" y="266" width="30" height="30" as="geometry" />
        </mxCell>
        <mxCell id="zWrNHK0OxFY0BgSE-Mza-52" value="" style="verticalLabelPosition=bottom;verticalAlign=top;html=1;strokeWidth=4;shape=mxgraph.flowchart.on-page_reference;strokeColor=#9673a6;fillColor=#e1d5e7;" parent="1" vertex="1">
          <mxGeometry x="860" y="266" width="30" height="30" as="geometry" />
        </mxCell>
        <mxCell id="zWrNHK0OxFY0BgSE-Mza-53" value="" style="verticalLabelPosition=bottom;verticalAlign=top;html=1;strokeWidth=4;shape=mxgraph.flowchart.on-page_reference;strokeColor=#9673a6;fillColor=#e1d5e7;" parent="1" vertex="1">
          <mxGeometry x="789" y="266" width="30" height="30" as="geometry" />
        </mxCell>
        <mxCell id="zWrNHK0OxFY0BgSE-Mza-54" value="" style="edgeStyle=orthogonalEdgeStyle;curved=1;rounded=0;orthogonalLoop=1;jettySize=auto;html=1;endArrow=none;endFill=0;strokeWidth=4;fontFamily=Courier New;fontSize=16;entryX=0;entryY=0.5;entryDx=0;entryDy=0;entryPerimeter=0;exitX=1;exitY=0.5;exitDx=0;exitDy=0;exitPerimeter=0;" parent="1" source="9hBKPDzoitwpIBdzFDQ7-50" target="zWrNHK0OxFY0BgSE-Mza-53" edge="1">
          <mxGeometry relative="1" as="geometry">
            <mxPoint x="990" y="210" as="targetPoint" />
            <mxPoint x="660" y="210" as="sourcePoint" />
          </mxGeometry>
        </mxCell>
        <mxCell id="zWrNHK0OxFY0BgSE-Mza-55" style="edgeStyle=orthogonalEdgeStyle;curved=1;rounded=0;html=1;exitX=0.5;exitY=1;exitPerimeter=0;entryX=1;entryY=0.5;entryPerimeter=0;endArrow=none;endFill=0;jettySize=auto;orthogonalLoop=1;strokeWidth=4;fontSize=15;exitDx=0;exitDy=0;entryDx=0;entryDy=0;" parent="1" source="zWrNHK0OxFY0BgSE-Mza-51" target="zWrNHK0OxFY0BgSE-Mza-46" edge="1">
          <mxGeometry relative="1" as="geometry">
            <mxPoint x="991.03" y="555" as="sourcePoint" />
            <mxPoint x="898.97" y="435" as="targetPoint" />
          </mxGeometry>
        </mxCell>
        <mxCell id="zWrNHK0OxFY0BgSE-Mza-56" style="edgeStyle=orthogonalEdgeStyle;curved=1;rounded=0;html=1;exitX=0;exitY=0.5;exitPerimeter=0;entryX=1;entryY=0.5;entryPerimeter=0;endArrow=none;endFill=0;jettySize=auto;orthogonalLoop=1;strokeWidth=4;fontSize=15;exitDx=0;exitDy=0;entryDx=0;entryDy=0;" parent="1" source="zWrNHK0OxFY0BgSE-Mza-51" target="zWrNHK0OxFY0BgSE-Mza-52" edge="1">
          <mxGeometry relative="1" as="geometry">
            <mxPoint x="982.06" y="480" as="sourcePoint" />
            <mxPoint x="890" y="360" as="targetPoint" />
          </mxGeometry>
        </mxCell>
        <mxCell id="zWrNHK0OxFY0BgSE-Mza-57" style="edgeStyle=orthogonalEdgeStyle;curved=1;rounded=0;html=1;exitX=0;exitY=0.5;exitPerimeter=0;entryX=1;entryY=0.5;entryPerimeter=0;endArrow=none;endFill=0;jettySize=auto;orthogonalLoop=1;strokeWidth=4;fontSize=15;exitDx=0;exitDy=0;entryDx=0;entryDy=0;" parent="1" source="zWrNHK0OxFY0BgSE-Mza-52" target="zWrNHK0OxFY0BgSE-Mza-53" edge="1">
          <mxGeometry relative="1" as="geometry">
            <mxPoint x="952.06" y="474" as="sourcePoint" />
            <mxPoint x="860" y="354" as="targetPoint" />
          </mxGeometry>
        </mxCell>
        <mxCell id="zWrNHK0OxFY0BgSE-Mza-58" value="PR commit" style="text;html=1;strokeColor=none;fillColor=none;align=center;verticalAlign=middle;whiteSpace=wrap;overflow=hidden;" parent="1" vertex="1">
          <mxGeometry x="764" y="235" width="80" height="30" as="geometry" />
        </mxCell>
        <mxCell id="zWrNHK0OxFY0BgSE-Mza-59" value="PR commit" style="text;html=1;strokeColor=none;fillColor=none;align=center;verticalAlign=middle;whiteSpace=wrap;overflow=hidden;" parent="1" vertex="1">
          <mxGeometry x="835" y="235" width="80" height="30" as="geometry" />
        </mxCell>
        <mxCell id="zWrNHK0OxFY0BgSE-Mza-60" value="PR commit" style="text;html=1;strokeColor=none;fillColor=none;align=center;verticalAlign=middle;whiteSpace=wrap;overflow=hidden;" parent="1" vertex="1">
          <mxGeometry x="905" y="235" width="80" height="30" as="geometry" />
        </mxCell>
        <mxCell id="zWrNHK0OxFY0BgSE-Mza-62" style="edgeStyle=orthogonalEdgeStyle;curved=1;rounded=0;html=1;exitX=0.5;exitY=1;exitPerimeter=0;entryX=1;entryY=0.5;entryPerimeter=0;endArrow=none;endFill=0;jettySize=auto;orthogonalLoop=1;strokeWidth=4;fontSize=15;exitDx=0;exitDy=0;entryDx=0;entryDy=0;" parent="1" source="zWrNHK0OxFY0BgSE-Mza-52" target="zWrNHK0OxFY0BgSE-Mza-45" edge="1">
          <mxGeometry relative="1" as="geometry">
            <mxPoint x="936.06" y="470" as="sourcePoint" />
            <mxPoint x="844" y="350" as="targetPoint" />
          </mxGeometry>
        </mxCell>
        <mxCell id="zWrNHK0OxFY0BgSE-Mza-63" style="edgeStyle=orthogonalEdgeStyle;curved=1;rounded=0;html=1;exitX=0.5;exitY=1;exitPerimeter=0;entryX=1;entryY=0.5;entryPerimeter=0;endArrow=none;endFill=0;jettySize=auto;orthogonalLoop=1;strokeWidth=4;fontSize=15;exitDx=0;exitDy=0;entryDx=0;entryDy=0;" parent="1" source="zWrNHK0OxFY0BgSE-Mza-53" target="zWrNHK0OxFY0BgSE-Mza-33" edge="1">
          <mxGeometry relative="1" as="geometry">
            <mxPoint x="960" y="465" as="sourcePoint" />
            <mxPoint x="867.94" y="345" as="targetPoint" />
          </mxGeometry>
        </mxCell>
        <mxCell id="zWrNHK0OxFY0BgSE-Mza-64" style="edgeStyle=orthogonalEdgeStyle;curved=1;rounded=0;html=1;exitX=0.5;exitY=1;exitPerimeter=0;entryX=1;entryY=0.5;entryPerimeter=0;endArrow=none;endFill=0;jettySize=auto;orthogonalLoop=1;strokeWidth=4;fontSize=15;exitDx=0;exitDy=0;entryDx=0;entryDy=0;" parent="1" source="9hBKPDzoitwpIBdzFDQ7-55" target="zWrNHK0OxFY0BgSE-Mza-51" edge="1">
          <mxGeometry relative="1" as="geometry">
            <mxPoint x="955" y="306" as="sourcePoint" />
            <mxPoint x="767.06" y="495" as="targetPoint" />
          </mxGeometry>
        </mxCell>
        <mxCell id="zWrNHK0OxFY0BgSE-Mza-67" value="" style="verticalLabelPosition=bottom;verticalAlign=top;html=1;strokeWidth=4;shape=mxgraph.flowchart.on-page_reference;strokeColor=#9673a6;fillColor=#e1d5e7;" parent="1" vertex="1">
          <mxGeometry x="454.5" y="1110" width="30" height="30" as="geometry" />
        </mxCell>
        <mxCell id="zWrNHK0OxFY0BgSE-Mza-68" value="" style="verticalLabelPosition=bottom;verticalAlign=top;html=1;strokeWidth=4;shape=mxgraph.flowchart.on-page_reference;strokeColor=#9673a6;fillColor=#e1d5e7;" parent="1" vertex="1">
          <mxGeometry x="360" y="1110" width="30" height="30" as="geometry" />
        </mxCell>
        <mxCell id="zWrNHK0OxFY0BgSE-Mza-73" value="&lt;span style=&quot;font-weight: normal;&quot;&gt;branch:&amp;nbsp;&lt;/span&gt;feature #7" style="text;html=1;strokeColor=none;fillColor=none;align=left;verticalAlign=middle;whiteSpace=wrap;overflow=hidden;fontSize=14;fontStyle=1;fontFamily=Courier New;" parent="1" vertex="1">
          <mxGeometry x="172.56" y="1120" width="161.62" height="20" as="geometry" />
        </mxCell>
        <mxCell id="zWrNHK0OxFY0BgSE-Mza-76" style="edgeStyle=orthogonalEdgeStyle;curved=1;rounded=0;html=1;entryX=1;entryY=0.5;entryPerimeter=0;endArrow=none;endFill=0;jettySize=auto;orthogonalLoop=1;strokeWidth=4;fontSize=15;entryDx=0;entryDy=0;exitX=0;exitY=0.5;exitDx=0;exitDy=0;exitPerimeter=0;" parent="1" source="zWrNHK0OxFY0BgSE-Mza-87" target="zWrNHK0OxFY0BgSE-Mza-19" edge="1">
          <mxGeometry relative="1" as="geometry">
            <mxPoint x="425" y="990" as="sourcePoint" />
            <mxPoint x="643.97" y="810" as="targetPoint" />
          </mxGeometry>
        </mxCell>
        <mxCell id="zWrNHK0OxFY0BgSE-Mza-77" style="edgeStyle=orthogonalEdgeStyle;curved=1;rounded=0;html=1;endArrow=none;endFill=0;jettySize=auto;orthogonalLoop=1;strokeWidth=4;fontSize=15;exitX=0;exitY=0.5;exitDx=0;exitDy=0;exitPerimeter=0;entryX=0.5;entryY=1;entryDx=0;entryDy=0;entryPerimeter=0;" parent="1" source="zWrNHK0OxFY0BgSE-Mza-3" target="zWrNHK0OxFY0BgSE-Mza-19" edge="1">
          <mxGeometry relative="1" as="geometry">
            <mxPoint x="905.5" y="1030" as="sourcePoint" />
            <mxPoint x="255" y="810" as="targetPoint" />
          </mxGeometry>
        </mxCell>
        <mxCell id="zWrNHK0OxFY0BgSE-Mza-78" style="edgeStyle=orthogonalEdgeStyle;curved=1;rounded=0;html=1;endArrow=none;endFill=0;jettySize=auto;orthogonalLoop=1;strokeWidth=4;fontSize=15;exitX=0;exitY=0.5;exitDx=0;exitDy=0;exitPerimeter=0;entryX=0.5;entryY=1;entryDx=0;entryDy=0;entryPerimeter=0;" parent="1" source="zWrNHK0OxFY0BgSE-Mza-68" target="zWrNHK0OxFY0BgSE-Mza-19" edge="1">
          <mxGeometry relative="1" as="geometry">
            <mxPoint x="370" y="1075" as="sourcePoint" />
            <mxPoint x="305" y="1010" as="targetPoint" />
          </mxGeometry>
        </mxCell>
        <mxCell id="zWrNHK0OxFY0BgSE-Mza-81" style="edgeStyle=orthogonalEdgeStyle;curved=1;rounded=0;html=1;endArrow=none;endFill=0;jettySize=auto;orthogonalLoop=1;strokeWidth=4;fontSize=15;exitX=0.5;exitY=1;exitDx=0;exitDy=0;exitPerimeter=0;entryX=1;entryY=0.5;entryDx=0;entryDy=0;entryPerimeter=0;" parent="1" source="zWrNHK0OxFY0BgSE-Mza-86" target="zWrNHK0OxFY0BgSE-Mza-67" edge="1">
          <mxGeometry relative="1" as="geometry">
            <mxPoint x="627.75" y="1135" as="sourcePoint" />
            <mxPoint x="577.25" y="1075" as="targetPoint" />
          </mxGeometry>
        </mxCell>
        <mxCell id="zWrNHK0OxFY0BgSE-Mza-82" style="edgeStyle=orthogonalEdgeStyle;curved=1;rounded=0;html=1;endArrow=none;endFill=0;jettySize=auto;orthogonalLoop=1;strokeWidth=4;fontSize=15;entryX=1;entryY=0.5;entryDx=0;entryDy=0;entryPerimeter=0;exitX=0;exitY=0.5;exitDx=0;exitDy=0;exitPerimeter=0;" parent="1" source="zWrNHK0OxFY0BgSE-Mza-67" target="zWrNHK0OxFY0BgSE-Mza-68" edge="1">
          <mxGeometry relative="1" as="geometry">
            <mxPoint x="445" y="1080" as="sourcePoint" />
            <mxPoint x="539.52" y="1080" as="targetPoint" />
          </mxGeometry>
        </mxCell>
        <mxCell id="zWrNHK0OxFY0BgSE-Mza-83" style="edgeStyle=orthogonalEdgeStyle;curved=1;rounded=0;html=1;endArrow=none;endFill=0;jettySize=auto;orthogonalLoop=1;strokeWidth=4;fontSize=15;entryX=1;entryY=0.5;entryDx=0;entryDy=0;entryPerimeter=0;exitX=0.5;exitY=1;exitDx=0;exitDy=0;exitPerimeter=0;" parent="1" source="zWrNHK0OxFY0BgSE-Mza-87" target="zWrNHK0OxFY0BgSE-Mza-3" edge="1">
          <mxGeometry relative="1" as="geometry">
            <mxPoint x="515" y="1060" as="sourcePoint" />
            <mxPoint x="431.15" y="1019.95" as="targetPoint" />
          </mxGeometry>
        </mxCell>
        <mxCell id="zWrNHK0OxFY0BgSE-Mza-86" value="" style="verticalLabelPosition=bottom;verticalAlign=top;html=1;strokeWidth=4;shape=mxgraph.flowchart.on-page_reference;strokeColor=#9673a6;fillColor=#e1d5e7;" parent="1" vertex="1">
          <mxGeometry x="555" y="975" width="30" height="30" as="geometry" />
        </mxCell>
        <mxCell id="zWrNHK0OxFY0BgSE-Mza-87" value="" style="verticalLabelPosition=bottom;verticalAlign=top;html=1;strokeWidth=4;shape=mxgraph.flowchart.on-page_reference;strokeColor=#9673a6;fillColor=#e1d5e7;" parent="1" vertex="1">
          <mxGeometry x="455" y="975" width="30" height="30" as="geometry" />
        </mxCell>
        <mxCell id="zWrNHK0OxFY0BgSE-Mza-93" style="edgeStyle=orthogonalEdgeStyle;curved=1;rounded=0;html=1;endArrow=none;endFill=0;jettySize=auto;orthogonalLoop=1;strokeWidth=4;fontSize=15;exitX=0;exitY=0.5;exitDx=0;exitDy=0;exitPerimeter=0;entryX=1;entryY=0.5;entryDx=0;entryDy=0;entryPerimeter=0;" parent="1" source="zWrNHK0OxFY0BgSE-Mza-86" target="zWrNHK0OxFY0BgSE-Mza-87" edge="1">
          <mxGeometry relative="1" as="geometry">
            <mxPoint x="666.99" y="1074.95" as="sourcePoint" />
            <mxPoint x="616.49" y="1014.95" as="targetPoint" />
          </mxGeometry>
        </mxCell>
        <mxCell id="zWrNHK0OxFY0BgSE-Mza-94" style="edgeStyle=orthogonalEdgeStyle;curved=1;rounded=0;html=1;endArrow=none;endFill=0;jettySize=auto;orthogonalLoop=1;strokeWidth=4;fontSize=15;entryX=1;entryY=0.5;entryDx=0;entryDy=0;entryPerimeter=0;" parent="1" target="zWrNHK0OxFY0BgSE-Mza-86" edge="1">
          <mxGeometry relative="1" as="geometry">
            <mxPoint x="665" y="990" as="sourcePoint" />
            <mxPoint x="634.02" y="959.98" as="targetPoint" />
          </mxGeometry>
        </mxCell>
        <mxCell id="zWrNHK0OxFY0BgSE-Mza-95" value="PR commit" style="text;html=1;strokeColor=none;fillColor=none;align=center;verticalAlign=middle;whiteSpace=wrap;overflow=hidden;" parent="1" vertex="1">
          <mxGeometry x="530" y="940" width="80" height="30" as="geometry" />
        </mxCell>
        <mxCell id="zWrNHK0OxFY0BgSE-Mza-97" value="PR commit" style="text;html=1;strokeColor=none;fillColor=none;align=center;verticalAlign=middle;whiteSpace=wrap;overflow=hidden;" parent="1" vertex="1">
          <mxGeometry x="429.5" y="940" width="80" height="30" as="geometry" />
        </mxCell>
        <mxCell id="zWrNHK0OxFY0BgSE-Mza-98" style="edgeStyle=orthogonalEdgeStyle;curved=1;rounded=0;html=1;endArrow=none;endFill=0;jettySize=auto;orthogonalLoop=1;strokeWidth=4;fontSize=15;entryX=1;entryY=0.5;entryDx=0;entryDy=0;entryPerimeter=0;" parent="1" target="9hBKPDzoitwpIBdzFDQ7-55" edge="1">
          <mxGeometry relative="1" as="geometry">
            <mxPoint x="1080" y="200" as="sourcePoint" />
            <mxPoint x="1040.02" y="205.95000000000005" as="targetPoint" />
          </mxGeometry>
        </mxCell>
        <mxCell id="zWrNHK0OxFY0BgSE-Mza-107" value="UAT branch is the most recent copy of master, gets replaced by the release branch" style="text;html=1;strokeColor=none;fillColor=none;align=left;verticalAlign=middle;whiteSpace=wrap;overflow=hidden;fontSize=14;fontStyle=0;fontColor=#009900;" parent="1" vertex="1">
          <mxGeometry x="49.63" y="741" width="208.19" height="59" as="geometry" />
        </mxCell>
        <mxCell id="wS9XHcUrJG6oOYsVFkSh-5" value="" style="edgeStyle=orthogonalEdgeStyle;rounded=0;html=1;jettySize=auto;orthogonalLoop=1;strokeWidth=4;endArrow=none;endFill=0;entryX=0;entryY=0.5;entryDx=0;entryDy=0;entryPerimeter=0;" edge="1" parent="1" target="wS9XHcUrJG6oOYsVFkSh-8">
          <mxGeometry x="215.97" y="724.5" as="geometry">
            <mxPoint x="177.25" y="725" as="sourcePoint" />
            <mxPoint x="285.97" y="724.5" as="targetPoint" />
          </mxGeometry>
        </mxCell>
        <mxCell id="wS9XHcUrJG6oOYsVFkSh-6" value="uat" style="text;html=1;strokeColor=none;fillColor=none;align=center;verticalAlign=middle;whiteSpace=wrap;overflow=hidden;fontSize=14;fontStyle=1;fontFamily=Courier New;" vertex="1" parent="1">
          <mxGeometry x="100" y="715" width="60" height="20" as="geometry" />
        </mxCell>
        <mxCell id="wS9XHcUrJG6oOYsVFkSh-8" value="" style="verticalLabelPosition=bottom;verticalAlign=top;html=1;strokeWidth=4;shape=mxgraph.flowchart.on-page_reference;fillColor=#dae8fc;strokeColor=#6c8ebf;" vertex="1" parent="1">
          <mxGeometry x="307.25" y="710" width="30" height="30" as="geometry" />
        </mxCell>
        <mxCell id="wS9XHcUrJG6oOYsVFkSh-9" value="" style="verticalLabelPosition=bottom;verticalAlign=top;html=1;strokeWidth=4;shape=mxgraph.flowchart.on-page_reference;fillColor=#dae8fc;strokeColor=#6c8ebf;" vertex="1" parent="1">
          <mxGeometry x="446.75" y="710" width="30" height="30" as="geometry" />
        </mxCell>
        <mxCell id="wS9XHcUrJG6oOYsVFkSh-10" value="" style="verticalLabelPosition=bottom;verticalAlign=top;html=1;strokeWidth=4;shape=mxgraph.flowchart.on-page_reference;fillColor=#dae8fc;strokeColor=#6c8ebf;" vertex="1" parent="1">
          <mxGeometry x="597.25" y="710" width="30" height="30" as="geometry" />
        </mxCell>
        <mxCell id="wS9XHcUrJG6oOYsVFkSh-11" value="" style="verticalLabelPosition=bottom;verticalAlign=top;html=1;strokeWidth=4;shape=mxgraph.flowchart.on-page_reference;strokeColor=#82b366;fillColor=#d5e8d4;" vertex="1" parent="1">
          <mxGeometry x="377.25" y="790" width="30" height="30" as="geometry" />
        </mxCell>
        <mxCell id="wS9XHcUrJG6oOYsVFkSh-12" value="" style="verticalLabelPosition=bottom;verticalAlign=top;html=1;strokeWidth=4;shape=mxgraph.flowchart.on-page_reference;strokeColor=#82b366;fillColor=#d5e8d4;" vertex="1" parent="1">
          <mxGeometry x="526.75" y="630" width="30" height="30" as="geometry" />
        </mxCell>
        <mxCell id="wS9XHcUrJG6oOYsVFkSh-16" value="" style="edgeStyle=orthogonalEdgeStyle;rounded=0;html=1;jettySize=auto;orthogonalLoop=1;strokeWidth=4;endArrow=none;endFill=0;exitX=1;exitY=0.5;exitDx=0;exitDy=0;exitPerimeter=0;" edge="1" parent="1" source="wS9XHcUrJG6oOYsVFkSh-10">
          <mxGeometry x="676.75" y="724.5" as="geometry">
            <mxPoint x="632.2499999999998" y="724.5" as="sourcePoint" />
            <mxPoint x="746.7500000000002" y="724.5" as="targetPoint" />
          </mxGeometry>
        </mxCell>
        <mxCell id="wS9XHcUrJG6oOYsVFkSh-17" value="" style="edgeStyle=orthogonalEdgeStyle;rounded=0;html=1;jettySize=auto;orthogonalLoop=1;strokeWidth=4;endArrow=none;endFill=0;entryX=0;entryY=0.5;entryDx=0;entryDy=0;entryPerimeter=0;exitX=1;exitY=0.5;exitDx=0;exitDy=0;exitPerimeter=0;" edge="1" parent="1" source="wS9XHcUrJG6oOYsVFkSh-9" target="wS9XHcUrJG6oOYsVFkSh-10">
          <mxGeometry x="508.72" y="764.5" as="geometry">
            <mxPoint x="464.2199999999998" y="764.5" as="sourcePoint" />
            <mxPoint x="578.7200000000003" y="764.5" as="targetPoint" />
          </mxGeometry>
        </mxCell>
        <mxCell id="wS9XHcUrJG6oOYsVFkSh-18" value="" style="edgeStyle=orthogonalEdgeStyle;rounded=0;html=1;jettySize=auto;orthogonalLoop=1;strokeWidth=4;endArrow=none;endFill=0;entryX=0;entryY=0.5;entryDx=0;entryDy=0;entryPerimeter=0;exitX=1;exitY=0.5;exitDx=0;exitDy=0;exitPerimeter=0;" edge="1" parent="1" source="wS9XHcUrJG6oOYsVFkSh-8" target="wS9XHcUrJG6oOYsVFkSh-9">
          <mxGeometry x="376.75" y="724.5" as="geometry">
            <mxPoint x="327.25" y="725" as="sourcePoint" />
            <mxPoint x="446.7500000000002" y="724.5" as="targetPoint" />
          </mxGeometry>
        </mxCell>
        <mxCell id="wS9XHcUrJG6oOYsVFkSh-20" style="edgeStyle=orthogonalEdgeStyle;curved=1;rounded=0;html=1;exitX=0.5;exitY=0;exitPerimeter=0;entryX=0;entryY=0.5;entryPerimeter=0;endArrow=none;endFill=0;jettySize=auto;orthogonalLoop=1;strokeWidth=4;fontSize=15;exitDx=0;exitDy=0;entryDx=0;entryDy=0;" edge="1" parent="1" source="wS9XHcUrJG6oOYsVFkSh-9" target="wS9XHcUrJG6oOYsVFkSh-12">
          <mxGeometry relative="1" as="geometry">
            <mxPoint x="367.75" y="690" as="sourcePoint" />
            <mxPoint x="489.75" y="580" as="targetPoint" />
          </mxGeometry>
        </mxCell>
        <mxCell id="wS9XHcUrJG6oOYsVFkSh-21" style="edgeStyle=orthogonalEdgeStyle;curved=1;rounded=0;html=1;exitX=0.5;exitY=0;exitPerimeter=0;entryX=1;entryY=0.5;entryPerimeter=0;endArrow=none;endFill=0;jettySize=auto;orthogonalLoop=1;strokeWidth=4;fontSize=15;exitDx=0;exitDy=0;entryDx=0;entryDy=0;" edge="1" parent="1" source="wS9XHcUrJG6oOYsVFkSh-10" target="wS9XHcUrJG6oOYsVFkSh-12">
          <mxGeometry relative="1" as="geometry">
            <mxPoint x="471.75" y="720" as="sourcePoint" />
            <mxPoint x="536.75" y="655" as="targetPoint" />
          </mxGeometry>
        </mxCell>
        <mxCell id="wS9XHcUrJG6oOYsVFkSh-22" value="&lt;span style=&quot;font-weight: normal;&quot;&gt;branch:&amp;nbsp;&lt;/span&gt;release 6.15.0" style="text;html=1;strokeColor=none;fillColor=none;align=left;verticalAlign=middle;whiteSpace=wrap;overflow=hidden;fontSize=14;fontStyle=1;fontFamily=Courier New;labelBackgroundColor=default;" vertex="1" parent="1">
          <mxGeometry x="446.75" y="600" width="193.25" height="20" as="geometry" />
        </mxCell>
        <mxCell id="wS9XHcUrJG6oOYsVFkSh-23" style="edgeStyle=orthogonalEdgeStyle;curved=1;rounded=0;html=1;exitX=0.5;exitY=1;exitPerimeter=0;entryX=0;entryY=0.5;entryPerimeter=0;endArrow=none;endFill=0;jettySize=auto;orthogonalLoop=1;strokeWidth=4;fontSize=15;exitDx=0;exitDy=0;entryDx=0;entryDy=0;" edge="1" parent="1" source="wS9XHcUrJG6oOYsVFkSh-8" target="wS9XHcUrJG6oOYsVFkSh-11">
          <mxGeometry relative="1" as="geometry">
            <mxPoint x="97.25" y="645" as="sourcePoint" />
            <mxPoint x="180.75" y="835" as="targetPoint" />
          </mxGeometry>
        </mxCell>
        <mxCell id="wS9XHcUrJG6oOYsVFkSh-24" style="edgeStyle=orthogonalEdgeStyle;curved=1;rounded=0;html=1;exitX=0.5;exitY=1;exitPerimeter=0;entryX=1;entryY=0.5;entryPerimeter=0;endArrow=none;endFill=0;jettySize=auto;orthogonalLoop=1;strokeWidth=4;fontSize=15;exitDx=0;exitDy=0;entryDx=0;entryDy=0;" edge="1" parent="1" source="wS9XHcUrJG6oOYsVFkSh-9" target="wS9XHcUrJG6oOYsVFkSh-11">
          <mxGeometry relative="1" as="geometry">
            <mxPoint x="332.25" y="750" as="sourcePoint" />
            <mxPoint x="377.75" y="805" as="targetPoint" />
          </mxGeometry>
        </mxCell>
        <mxCell id="wS9XHcUrJG6oOYsVFkSh-26" value="&lt;span style=&quot;font-weight: normal;&quot;&gt;branch:&amp;nbsp;&lt;/span&gt;release 6.14.0" style="text;html=1;strokeColor=none;fillColor=none;align=left;verticalAlign=middle;whiteSpace=wrap;overflow=hidden;fontSize=14;fontStyle=1;fontFamily=Courier New;labelBackgroundColor=default;" vertex="1" parent="1">
          <mxGeometry x="295.63" y="830" width="193.25" height="20" as="geometry" />
        </mxCell>
        <mxCell id="wS9XHcUrJG6oOYsVFkSh-27" value="tag: &lt;b&gt;release 6.15.0&lt;/b&gt;" style="text;html=1;strokeColor=none;fillColor=none;align=center;verticalAlign=middle;whiteSpace=wrap;overflow=hidden;fontSize=14;fontFamily=Courier New;" vertex="1" parent="1">
          <mxGeometry x="528.94" y="750" width="166.62" height="20" as="geometry" />
        </mxCell>
        <UserObject label="PROD" id="wS9XHcUrJG6oOYsVFkSh-30">
          <mxCell style="text;whiteSpace=wrap;html=1;fontStyle=1;fontSize=17;fontColor=#009b7c;" vertex="1" parent="1">
            <mxGeometry x="32.44" y="90" width="57.56" height="30" as="geometry" />
          </mxCell>
        </UserObject>
        <UserObject label="UAT" id="wS9XHcUrJG6oOYsVFkSh-31">
          <mxCell style="text;whiteSpace=wrap;html=1;fontStyle=1;fontSize=17;fontColor=#009b7c;" vertex="1" parent="1">
            <mxGeometry x="28.72" y="600" width="41.28" height="30" as="geometry" />
          </mxCell>
        </UserObject>
        <UserObject label="STAGE" id="wS9XHcUrJG6oOYsVFkSh-32">
          <mxCell style="text;whiteSpace=wrap;html=1;fontStyle=1;fontSize=17;fontColor=#009b7c;" vertex="1" parent="1">
            <mxGeometry x="28.72" y="910" width="71.28" height="30" as="geometry" />
          </mxCell>
        </UserObject>
        <mxCell id="wS9XHcUrJG6oOYsVFkSh-33" value="" style="whiteSpace=wrap;html=1;fillColor=none;strokeColor=#666666;fontColor=#333333;" vertex="1" parent="1">
          <mxGeometry x="20" y="1210" width="1080" height="280" as="geometry" />
        </mxCell>
        <mxCell id="wS9XHcUrJG6oOYsVFkSh-34" value="" style="verticalLabelPosition=bottom;verticalAlign=top;html=1;strokeWidth=4;shape=mxgraph.flowchart.on-page_reference;strokeColor=#9673a6;fillColor=#e1d5e7;" vertex="1" parent="1">
          <mxGeometry x="397.5" y="1240" width="30" height="30" as="geometry" />
        </mxCell>
        <mxCell id="wS9XHcUrJG6oOYsVFkSh-35" value="develop" style="text;html=1;strokeColor=none;fillColor=none;align=center;verticalAlign=middle;whiteSpace=wrap;overflow=hidden;fontSize=14;fontStyle=1;fontFamily=Courier New;" vertex="1" parent="1">
          <mxGeometry x="100" y="1310" width="73.84" height="20" as="geometry" />
        </mxCell>
        <mxCell id="wS9XHcUrJG6oOYsVFkSh-36" value="" style="edgeStyle=orthogonalEdgeStyle;rounded=0;html=1;jettySize=auto;orthogonalLoop=1;strokeWidth=4;endArrow=none;endFill=0;" edge="1" parent="1">
          <mxGeometry x="237.75" y="1319.5" as="geometry">
            <mxPoint x="193.25" y="1319.5" as="sourcePoint" />
            <mxPoint x="307.75" y="1319.5" as="targetPoint" />
          </mxGeometry>
        </mxCell>
        <mxCell id="wS9XHcUrJG6oOYsVFkSh-37" value="" style="verticalLabelPosition=bottom;verticalAlign=top;html=1;strokeWidth=4;shape=mxgraph.flowchart.on-page_reference;fillColor=#dae8fc;strokeColor=#6c8ebf;" vertex="1" parent="1">
          <mxGeometry x="310" y="1305" width="30" height="30" as="geometry" />
        </mxCell>
        <mxCell id="wS9XHcUrJG6oOYsVFkSh-39" value="" style="verticalLabelPosition=bottom;verticalAlign=top;html=1;strokeWidth=4;shape=mxgraph.flowchart.on-page_reference;strokeColor=#9673a6;fillColor=#e1d5e7;" vertex="1" parent="1">
          <mxGeometry x="474.38" y="1385" width="30" height="30" as="geometry" />
        </mxCell>
        <mxCell id="wS9XHcUrJG6oOYsVFkSh-40" value="" style="verticalLabelPosition=bottom;verticalAlign=top;html=1;strokeWidth=4;shape=mxgraph.flowchart.on-page_reference;strokeColor=#9673a6;fillColor=#e1d5e7;" vertex="1" parent="1">
          <mxGeometry x="380.81" y="1385" width="30" height="30" as="geometry" />
        </mxCell>
        <mxCell id="wS9XHcUrJG6oOYsVFkSh-41" value="&lt;span style=&quot;font-weight: normal;&quot;&gt;branch:&amp;nbsp;&lt;/span&gt;feature #6" style="text;html=1;strokeColor=none;fillColor=none;align=left;verticalAlign=middle;whiteSpace=wrap;overflow=hidden;fontSize=14;fontStyle=1;fontFamily=Courier New;" vertex="1" parent="1">
          <mxGeometry x="172.56" y="1415" width="167.44" height="20" as="geometry" />
        </mxCell>
        <mxCell id="wS9XHcUrJG6oOYsVFkSh-42" value="&lt;span style=&quot;font-weight: normal;&quot;&gt;branch: &lt;/span&gt;feature #7" style="text;html=1;strokeColor=none;fillColor=none;align=left;verticalAlign=middle;whiteSpace=wrap;overflow=hidden;fontSize=14;fontStyle=1;fontFamily=Courier New;" vertex="1" parent="1">
          <mxGeometry x="327" y="1214" width="168.5" height="20" as="geometry" />
        </mxCell>
        <mxCell id="wS9XHcUrJG6oOYsVFkSh-43" style="edgeStyle=orthogonalEdgeStyle;curved=1;rounded=0;html=1;entryX=1;entryY=0.5;entryPerimeter=0;endArrow=none;endFill=0;jettySize=auto;orthogonalLoop=1;strokeWidth=4;fontSize=15;entryDx=0;entryDy=0;exitX=0;exitY=0.5;exitDx=0;exitDy=0;exitPerimeter=0;" edge="1" parent="1" source="wS9XHcUrJG6oOYsVFkSh-50" target="wS9XHcUrJG6oOYsVFkSh-37">
          <mxGeometry relative="1" as="geometry">
            <mxPoint x="440.5" y="1320" as="sourcePoint" />
            <mxPoint x="659.47" y="1140" as="targetPoint" />
          </mxGeometry>
        </mxCell>
        <mxCell id="wS9XHcUrJG6oOYsVFkSh-44" style="edgeStyle=orthogonalEdgeStyle;curved=1;rounded=0;html=1;endArrow=none;endFill=0;jettySize=auto;orthogonalLoop=1;strokeWidth=4;fontSize=15;exitX=0;exitY=0.5;exitDx=0;exitDy=0;exitPerimeter=0;entryX=0.5;entryY=0;entryDx=0;entryDy=0;entryPerimeter=0;" edge="1" parent="1" source="wS9XHcUrJG6oOYsVFkSh-34" target="wS9XHcUrJG6oOYsVFkSh-37">
          <mxGeometry relative="1" as="geometry">
            <mxPoint x="921" y="1360" as="sourcePoint" />
            <mxPoint x="270.5" y="1140" as="targetPoint" />
          </mxGeometry>
        </mxCell>
        <mxCell id="wS9XHcUrJG6oOYsVFkSh-45" style="edgeStyle=orthogonalEdgeStyle;curved=1;rounded=0;html=1;endArrow=none;endFill=0;jettySize=auto;orthogonalLoop=1;strokeWidth=4;fontSize=15;exitX=0;exitY=0.5;exitDx=0;exitDy=0;exitPerimeter=0;entryX=0.5;entryY=1;entryDx=0;entryDy=0;entryPerimeter=0;" edge="1" parent="1" source="wS9XHcUrJG6oOYsVFkSh-40" target="wS9XHcUrJG6oOYsVFkSh-37">
          <mxGeometry relative="1" as="geometry">
            <mxPoint x="385.5" y="1405" as="sourcePoint" />
            <mxPoint x="320.5" y="1340" as="targetPoint" />
          </mxGeometry>
        </mxCell>
        <mxCell id="wS9XHcUrJG6oOYsVFkSh-46" style="edgeStyle=orthogonalEdgeStyle;curved=1;rounded=0;html=1;endArrow=none;endFill=0;jettySize=auto;orthogonalLoop=1;strokeWidth=4;fontSize=15;exitX=0.5;exitY=1;exitDx=0;exitDy=0;exitPerimeter=0;entryX=1;entryY=0.5;entryDx=0;entryDy=0;entryPerimeter=0;" edge="1" parent="1" source="wS9XHcUrJG6oOYsVFkSh-49" target="wS9XHcUrJG6oOYsVFkSh-39">
          <mxGeometry relative="1" as="geometry">
            <mxPoint x="643.25" y="1465" as="sourcePoint" />
            <mxPoint x="592.75" y="1405" as="targetPoint" />
          </mxGeometry>
        </mxCell>
        <mxCell id="wS9XHcUrJG6oOYsVFkSh-47" style="edgeStyle=orthogonalEdgeStyle;curved=1;rounded=0;html=1;endArrow=none;endFill=0;jettySize=auto;orthogonalLoop=1;strokeWidth=4;fontSize=15;entryX=1;entryY=0.5;entryDx=0;entryDy=0;entryPerimeter=0;exitX=0;exitY=0.5;exitDx=0;exitDy=0;exitPerimeter=0;" edge="1" parent="1" source="wS9XHcUrJG6oOYsVFkSh-39" target="wS9XHcUrJG6oOYsVFkSh-40">
          <mxGeometry relative="1" as="geometry">
            <mxPoint x="460.5" y="1410" as="sourcePoint" />
            <mxPoint x="555.02" y="1410" as="targetPoint" />
          </mxGeometry>
        </mxCell>
        <mxCell id="wS9XHcUrJG6oOYsVFkSh-48" style="edgeStyle=orthogonalEdgeStyle;curved=1;rounded=0;html=1;endArrow=none;endFill=0;jettySize=auto;orthogonalLoop=1;strokeWidth=4;fontSize=15;entryX=1;entryY=0.5;entryDx=0;entryDy=0;entryPerimeter=0;exitX=0.5;exitY=0;exitDx=0;exitDy=0;exitPerimeter=0;" edge="1" parent="1" source="wS9XHcUrJG6oOYsVFkSh-50" target="wS9XHcUrJG6oOYsVFkSh-34">
          <mxGeometry relative="1" as="geometry">
            <mxPoint x="530.5" y="1390" as="sourcePoint" />
            <mxPoint x="446.65" y="1349.95" as="targetPoint" />
          </mxGeometry>
        </mxCell>
        <mxCell id="wS9XHcUrJG6oOYsVFkSh-49" value="" style="verticalLabelPosition=bottom;verticalAlign=top;html=1;strokeWidth=4;shape=mxgraph.flowchart.on-page_reference;strokeColor=#9673a6;fillColor=#e1d5e7;" vertex="1" parent="1">
          <mxGeometry x="570.5" y="1305" width="30" height="30" as="geometry" />
        </mxCell>
        <mxCell id="wS9XHcUrJG6oOYsVFkSh-50" value="" style="verticalLabelPosition=bottom;verticalAlign=top;html=1;strokeWidth=4;shape=mxgraph.flowchart.on-page_reference;strokeColor=#9673a6;fillColor=#e1d5e7;" vertex="1" parent="1">
          <mxGeometry x="470.5" y="1305" width="30" height="30" as="geometry" />
        </mxCell>
        <mxCell id="wS9XHcUrJG6oOYsVFkSh-51" style="edgeStyle=orthogonalEdgeStyle;curved=1;rounded=0;html=1;endArrow=none;endFill=0;jettySize=auto;orthogonalLoop=1;strokeWidth=4;fontSize=15;exitX=0;exitY=0.5;exitDx=0;exitDy=0;exitPerimeter=0;entryX=1;entryY=0.5;entryDx=0;entryDy=0;entryPerimeter=0;" edge="1" parent="1" source="wS9XHcUrJG6oOYsVFkSh-49" target="wS9XHcUrJG6oOYsVFkSh-50">
          <mxGeometry relative="1" as="geometry">
            <mxPoint x="682.49" y="1404.95" as="sourcePoint" />
            <mxPoint x="631.99" y="1344.95" as="targetPoint" />
          </mxGeometry>
        </mxCell>
        <mxCell id="wS9XHcUrJG6oOYsVFkSh-52" style="edgeStyle=orthogonalEdgeStyle;curved=1;rounded=0;html=1;endArrow=none;endFill=0;jettySize=auto;orthogonalLoop=1;strokeWidth=4;fontSize=15;entryX=1;entryY=0.5;entryDx=0;entryDy=0;entryPerimeter=0;" edge="1" parent="1" target="wS9XHcUrJG6oOYsVFkSh-49">
          <mxGeometry relative="1" as="geometry">
            <mxPoint x="680.5" y="1320" as="sourcePoint" />
            <mxPoint x="649.52" y="1289.98" as="targetPoint" />
          </mxGeometry>
        </mxCell>
        <UserObject label="DEV" id="wS9XHcUrJG6oOYsVFkSh-55">
          <mxCell style="text;whiteSpace=wrap;html=1;fontStyle=1;fontSize=17;fontColor=#009b7c;" vertex="1" parent="1">
            <mxGeometry x="28.72" y="1220" width="71.28" height="30" as="geometry" />
          </mxCell>
        </UserObject>
        <mxCell id="wS9XHcUrJG6oOYsVFkSh-38" value="tag: &lt;b&gt;release 6.15.0&lt;/b&gt;" style="text;html=1;strokeColor=none;fillColor=default;align=center;verticalAlign=middle;whiteSpace=wrap;overflow=hidden;fontSize=14;fontFamily=Courier New;" vertex="1" parent="1">
          <mxGeometry x="235.63000000000005" y="1340" width="171.62" height="20" as="geometry" />
        </mxCell>
        <mxCell id="wS9XHcUrJG6oOYsVFkSh-57" value="tag: &lt;b&gt;release 6.13.0&lt;/b&gt;" style="text;html=1;strokeColor=none;fillColor=none;align=center;verticalAlign=middle;whiteSpace=wrap;overflow=hidden;fontSize=14;fontFamily=Courier New;" vertex="1" parent="1">
          <mxGeometry x="223.69" y="150" width="166.62" height="20" as="geometry" />
        </mxCell>
        <mxCell id="zWrNHK0OxFY0BgSE-Mza-72" value="&lt;span style=&quot;font-weight: normal;&quot;&gt;branch:&amp;nbsp;&lt;/span&gt;feature #6" style="text;html=1;strokeColor=none;fillColor=default;align=left;verticalAlign=middle;whiteSpace=wrap;overflow=hidden;fontSize=14;fontStyle=1;fontFamily=Courier New;" parent="1" vertex="1">
          <mxGeometry x="291.28" y="1080" width="167.44" height="20" as="geometry" />
        </mxCell>
        <mxCell id="wS9XHcUrJG6oOYsVFkSh-58" value="Stage branch has reviewed changes ready for testing" style="text;html=1;strokeColor=none;fillColor=none;align=left;verticalAlign=middle;whiteSpace=wrap;overflow=hidden;fontSize=14;fontStyle=0;fontColor=#009900;" vertex="1" parent="1">
          <mxGeometry x="45.25" y="1010.5" width="175" height="39.5" as="geometry" />
        </mxCell>
        <mxCell id="wS9XHcUrJG6oOYsVFkSh-59" value="Develop branch everything goes, not need to code review" style="text;html=1;strokeColor=none;fillColor=none;align=left;verticalAlign=middle;whiteSpace=wrap;overflow=hidden;fontSize=14;fontStyle=0;fontColor=#009900;" vertex="1" parent="1">
          <mxGeometry x="35.5" y="1335" width="201.31" height="45" as="geometry" />
        </mxCell>
        <mxCell id="wS9XHcUrJG6oOYsVFkSh-60" value="Two code reviewers for each change to be merged" style="text;html=1;strokeColor=none;fillColor=none;align=left;verticalAlign=middle;whiteSpace=wrap;overflow=hidden;fontSize=14;fontStyle=0;fontColor=#009900;" vertex="1" parent="1">
          <mxGeometry x="631.5" y="940.5" width="345" height="29.5" as="geometry" />
        </mxCell>
        <mxCell id="wS9XHcUrJG6oOYsVFkSh-61" value="tag:&amp;nbsp;&lt;b&gt;release 6.14.0&lt;/b&gt;" style="text;html=1;strokeColor=none;fillColor=none;align=center;verticalAlign=middle;whiteSpace=wrap;overflow=hidden;fontSize=14;fontFamily=Courier New;" vertex="1" parent="1">
          <mxGeometry x="925.74" y="150" width="178.53" height="20" as="geometry" />
        </mxCell>
        <mxCell id="zWrNHK0OxFY0BgSE-Mza-15" value="" style="endArrow=classic;html=1;strokeWidth=1;fontFamily=Courier New;fontColor=#009900;" parent="1" edge="1">
          <mxGeometry width="50" height="50" relative="1" as="geometry">
            <mxPoint x="244.5" y="280.52" as="sourcePoint" />
            <mxPoint x="327.5" y="281.02" as="targetPoint" />
          </mxGeometry>
        </mxCell>
        <mxCell id="zWrNHK0OxFY0BgSE-Mza-32" value="&lt;span style=&quot;font-weight: 400;&quot;&gt;branch:&amp;nbsp;&lt;/span&gt;feature #3" style="text;html=1;strokeColor=none;fillColor=default;align=left;verticalAlign=middle;whiteSpace=wrap;overflow=hidden;fontSize=14;fontStyle=1;fontFamily=Courier New;" parent="1" vertex="1">
          <mxGeometry x="662.06" y="360" width="160" height="20" as="geometry" />
        </mxCell>
        <mxCell id="zWrNHK0OxFY0BgSE-Mza-47" value="&lt;span style=&quot;font-weight: 400;&quot;&gt;branch:&amp;nbsp;&lt;/span&gt;feature #4" style="text;html=1;align=left;verticalAlign=middle;whiteSpace=wrap;overflow=hidden;fontSize=14;fontStyle=1;fontFamily=Courier New;fillColor=default;" parent="1" vertex="1">
          <mxGeometry x="675" y="435" width="160" height="20" as="geometry" />
        </mxCell>
        <mxCell id="zWrNHK0OxFY0BgSE-Mza-1" value="&lt;span style=&quot;font-weight: normal;&quot;&gt;branch:&amp;nbsp;&lt;/span&gt;feature #1" style="text;html=1;strokeColor=none;fillColor=default;align=left;verticalAlign=middle;whiteSpace=wrap;overflow=hidden;fontSize=14;fontStyle=1;fontFamily=Courier New;" parent="1" vertex="1">
          <mxGeometry x="307.25" y="360" width="160" height="20" as="geometry" />
        </mxCell>
      </root>
    </mxGraphModel>
  </diagram>
</mxfile>
